<?xml version="1.0" encoding="UTF-8" standalone="no"?><!DOCTYPE svg PUBLIC "-//W3C//DTD SVG 1.1//EN"
    "http://www.w3.org/Graphics/SVG/1.1/DTD/svg11.dtd">
<svg width="100%" height="100%" viewBox="0 0 289 89" version="1.1" xmlns="http://www.w3.org/2000/svg"
     xml:space="preserve"
     style="fill-rule:evenodd;clip-rule:evenodd;stroke-linejoin:round;stroke-miterlimit:2;"><g><g><clipPath id="_clip1"><rect x="0" y="0.365" width="288" height="88.635"/></clipPath><g
    clip-path="url(#_clip1)"><path d="M27.2,65.478c-4.411,0 -8.823,-1.05 -13.444,-1.05c-4.41,0 -6.72,0.42 -10.081,0.42c-1.05,0 -1.785,-0.105 -1.785,-1.154c0,-1.052 0.63,-1.262 2.94,-1.262c4.726,0 4.937,-0.209 4.937,-1.783l0,-48.312c0,-8.296 -1.683,-9.241 -4.621,-9.241c-4.728,0 -5.146,-0.106 -5.146,-1.366c0,-0.735 0.313,-0.84 2.099,-0.84c3.256,0 6.511,0.105 10.188,0.105c2.205,0 7.247,-0.63 16.697,-0.63c13.655,0 19.536,7.036 19.536,14.492c0,7.457 -4.517,11.133 -7.877,13.443c-1.996,1.367 -4.308,2.521 -4.308,2.836c0,0.21 1.997,0.735 4.098,1.785c4.935,2.521 11.132,6.092 11.132,15.23c0,11.762 -9.767,17.327 -24.365,17.327Zm-1.366,-62.593c-6.932,0 -7.246,0.945 -7.246,3.045l0,22.791c0,1.68 1.365,1.47 3.886,1.47c6.405,0 10.817,0.63 10.817,0.63c3.044,-2.31 6.512,-4.306 6.512,-12.602c0,-5.251 -4.411,-15.334 -13.969,-15.334Zm-3.464,29.3c-2.941,0 -3.782,0.421 -3.782,2.732l0,18.798c0,0.948 0.314,6.827 1.26,7.878c1.155,1.26 4.515,1.995 7.878,1.995c7.98,0 13.861,-5.462 13.861,-14.597c0,-9.454 -7.771,-16.806 -19.217,-16.806Z" style="fill:#fff;fill-rule:nonzero;"/>
  <path
      d="M85.045,39.398c-2.375,0.549 -11.51,2.56 -21.922,3.198c-1.463,0.092 -1.737,0.549 -1.737,2.65c0,12.606 9.774,15.985 16.718,15.985c6.028,0 9.317,-2.192 9.865,-2.192c0.457,0 0.731,0.547 0.731,0.731c0,0.455 -7.765,6.211 -15.165,6.211c-7.489,0 -18.634,-3.654 -18.634,-18.908c0,-12.881 8.679,-20.555 16.99,-20.555c4.751,0 10.597,3.016 13.885,6.853c1.554,1.826 3.015,4.018 3.015,4.748c0,0.366 -1.278,0.732 -3.746,1.279Zm-14.067,-10.96c-6.942,0 -9.135,10.413 -9.135,11.692c0,0.457 0,0.548 1.097,0.548c4.75,0 9.682,-1.189 16.533,-2.284c1.005,-0.183 1.097,-0.366 1.097,-0.914c0,-2.283 -5.389,-9.042 -9.592,-9.042Z"
      style="fill:#fff;fill-rule:nonzero;"/>
  <path
      d="M118.479,36.932c-1.279,0 -2.375,-3.745 -6.943,-3.745c-5.298,0 -7.307,2.192 -7.307,6.028l0,18.819c0,4.475 0.273,4.475 7.033,4.475c2.375,0 2.466,0.275 2.466,1.097c0,1.006 -0.091,0.914 -2.466,0.914c-1.28,0 -7.399,-0.457 -10.323,-0.457c-3.106,0 -6.211,0.457 -7.49,0.457c-2.102,0 -2.285,0 -2.285,-0.914c0,-0.914 0.092,-1.097 2.285,-1.097c3.745,0 4.019,-0.091 4.019,-1.37l0,-25.029c0,-6.211 0.182,-6.393 -4.932,-6.393c-1.646,0 -1.646,0.091 -1.646,-0.914c0,-1.097 -0.091,-1.371 1.463,-1.371c3.105,0 4.841,0.182 6.668,0.182c1.461,0 3.196,-0.456 4.66,-0.456c0.365,0 0.731,0.274 0.731,1.006c0,0.457 -0.183,2.466 -0.183,2.74c0,0.822 0.09,1.461 0.457,1.461c1.37,0 5.663,-4.751 9.955,-4.751c1.646,0 5.846,2.011 5.846,4.386c0,0.913 -1.461,4.932 -2.008,4.932Z"
      style="fill:#fff;fill-rule:nonzero;"/>
  <path
      d="M161.686,64.885c-1.096,0 -2.283,-0.091 -3.105,-0.091c-1.096,0 -3.837,0.091 -5.114,0.091c-1.647,0 -2.469,-2.285 -6.305,-6.669c-3.836,-4.383 -7.675,-10.139 -8.223,-10.139c-0.365,0 -1.644,0.914 -3.197,1.918c-1.461,0.914 -2.74,1.554 -2.74,2.377l0,5.754c0,4.291 -0.183,4.291 5.48,4.291c2.101,0 2.466,0.458 2.466,1.189c0,0.914 -0.456,0.914 -2.466,0.914c-1.37,0 -5.571,-0.183 -8.494,-0.183c-3.107,0 -6.486,0.183 -7.765,0.183c-2.101,0 -2.649,-0.092 -2.649,-0.914c0,-0.731 0.457,-1.189 2.649,-1.189c3.105,0 3.928,0 3.928,-1.37c0,-2.648 0.274,-29.687 0.274,-48.961c0,-6.484 -0.731,-7.307 -3.197,-7.307c-3.745,0 -4.11,-0.274 -4.11,-0.915c0,-0.913 0.182,-1.279 1.187,-1.279c6.576,0 11.966,-2.009 12.788,-2.009c0.457,0 0.64,0.274 0.64,0.822c0,1.187 -0.183,5.025 -0.183,7.948c0,13.884 -0.548,24.115 -0.548,39.004c0,0.366 0.091,0.641 0.366,0.641c2.283,0 11.785,-8.404 14.708,-11.146c3.563,-3.379 4.384,-4.931 4.384,-6.849c0,-1.462 -0.274,-1.645 -4.293,-1.645c-1.37,0 -1.827,-0.183 -1.827,-1.005c0,-0.732 0.457,-0.915 1.644,-0.915c0.912,0 2.649,0.274 3.745,0.274c1.187,0 6.486,-0.274 7.582,-0.274c0.731,0 1.096,0.092 1.096,0.366c0,0.824 -3.104,4.751 -5.936,7.492c-4.569,4.476 -10.232,8.494 -10.232,9.134c0,0.823 1.644,2.558 8.038,10.232c3.108,3.744 6.03,8.22 9.135,8.22c2.192,0 2.923,0.458 2.923,1.188c0,0.639 -0.64,0.822 -2.649,0.822Z"
      style="fill:#fff;fill-rule:nonzero;"/>
  <path
      d="M191.559,39.398c-2.376,0.549 -11.51,2.56 -21.923,3.198c-1.462,0.092 -1.736,0.549 -1.736,2.65c0,12.606 9.773,15.985 16.715,15.985c6.029,0 9.319,-2.192 9.867,-2.192c0.456,0 0.73,0.547 0.73,0.731c0,0.455 -7.765,6.211 -15.163,6.211c-7.491,0 -18.635,-3.654 -18.635,-18.908c0,-12.881 8.678,-20.555 16.99,-20.555c4.75,0 10.596,3.016 13.886,6.853c1.552,1.826 3.014,4.018 3.014,4.748c0,0.366 -1.279,0.732 -3.745,1.279Zm-14.069,-10.96c-6.941,0 -9.133,10.413 -9.133,11.692c0,0.457 0,0.548 1.096,0.548c4.748,0 9.681,-1.189 16.533,-2.284c1.004,-0.183 1.096,-0.366 1.096,-0.914c0,-2.283 -5.389,-9.042 -9.592,-9.042Z"
      style="fill:#fff;fill-rule:nonzero;"/>
  <path
      d="M211.672,64.52c-1.371,0 -3.379,-0.184 -5.025,-0.184c-3.105,0 -7.946,0.184 -9.225,0.184c-2.102,0 -2.285,-0.184 -2.285,-0.913c0,-0.64 0.092,-1.189 2.285,-1.189c3.745,0 5.298,0.091 5.298,-1.552l0,-50.333c0,-5.754 -0.548,-5.754 -4.657,-5.754c-1.645,0 -2.56,-0.182 -2.56,-1.189c0,-1.096 0.731,-1.004 2.285,-1.096c7.125,-0.456 10.595,-2.009 11.144,-2.009c0.457,0 0.912,0.457 0.912,1.461c0,1.096 -0.455,4.386 -0.455,7.126c0,34.803 -0.457,42.018 -0.457,44.669c0,7.581 0.639,8.586 2.283,8.586c4.567,0 4.385,0.547 4.385,1.28c0,0.913 -0.641,0.913 -3.928,0.913Z"
      style="fill:#fff;fill-rule:nonzero;"/>
  <path
      d="M244.247,39.398c-2.375,0.549 -11.51,2.56 -21.924,3.198c-1.461,0.092 -1.737,0.549 -1.737,2.65c0,12.606 9.776,15.985 16.717,15.985c6.03,0 9.319,-2.192 9.865,-2.192c0.457,0 0.731,0.547 0.731,0.731c0,0.455 -7.764,6.211 -15.162,6.211c-7.492,0 -18.637,-3.654 -18.637,-18.908c0,-12.881 8.68,-20.555 16.992,-20.555c4.75,0 10.598,3.016 13.885,6.853c1.553,1.826 3.014,4.018 3.014,4.748c0,0.366 -1.28,0.732 -3.744,1.279Zm-14.069,-10.96c-6.941,0 -9.135,10.413 -9.135,11.692c0,0.457 0,0.548 1.096,0.548c4.752,0 9.684,-1.189 16.535,-2.284c1.004,-0.183 1.098,-0.366 1.098,-0.914c0,-2.283 -5.393,-9.042 -9.594,-9.042Z"
      style="fill:#fff;fill-rule:nonzero;"/>
  <path
      d="M285.625,29.625c-2.009,0 -6.029,10.962 -13.244,28.501c-5.757,13.974 -9.867,21.374 -12.789,27.404c-1.004,2.01 -2.101,2.1 -4.111,2.375c-2.74,0.365 -3.379,1.095 -5.389,1.095c-1.554,0 -2.467,-0.456 -2.467,-0.913c0,-0.547 4.293,-1.095 7.399,-5.024c3.288,-4.11 11.144,-14.89 11.144,-17.629c0,-1.006 -7.306,-17.906 -12.332,-29.781c-2.283,-5.48 -2.923,-5.937 -4.566,-5.937c-1.828,0 -1.918,-0.091 -1.918,-0.913c0,-0.822 0.273,-1.28 1.918,-1.28c2.557,0 3.197,0.182 5.389,0.182c2.556,0 5.754,-0.273 8.677,-0.273c1.918,0 2.284,0.365 2.284,1.371c0,0.822 -0.366,0.913 -2.284,0.913c-2.192,0 -2.74,0.549 -2.74,2.649c0,2.65 2.375,5.846 7.856,19.915c0.732,1.918 1.828,3.471 2.193,3.471c0.639,0 1.188,-1.28 2.648,-5.574c2.192,-6.575 5.481,-16.076 5.481,-17.355c0,-2.739 0,-3.287 -3.106,-3.287c-2.83,0 -3.197,0 -3.197,-0.914c0,-1.189 0.274,-1.189 1.918,-1.189c2.467,0 4.11,0.182 6.578,0.182c1.371,0 3.836,-0.364 5.116,-0.364c1.46,0 1.917,0.09 1.917,1.096c0,0.822 -1.279,1.279 -2.375,1.279Z"
      style="fill:#fff;fill-rule:nonzero;"/>
  <path
      d="M12.44,87.663c-2.995,0 -4.51,-1.694 -4.51,-4.44l0,-7.968l2.12,0l0,8.076c0,1.533 0.643,2.531 2.39,2.531c1.729,0 2.371,-0.998 2.371,-2.514l0,-8.093l2.122,0l0,7.951c0,2.763 -1.515,4.457 -4.493,4.457Z"
      style="fill:#fff;fill-rule:nonzero;"/>
  <path
      d="M27.217,87.467l-5.152,-8.201l-0.035,0l0,8.201l-2.122,0l0,-12.016l2.05,-0.214l4.974,8.041l0.054,0l0,-8.024l2.121,0l0,12.213l-1.89,0Z"
      style="fill:#fff;fill-rule:nonzero;"/>
  <rect x="32.134" y="75.255" width="2.121" height="12.212" style="fill:#fff;fill-rule:nonzero;"/>
  <path
      d="M42.883,87.467l-2.335,0l-4.207,-12.213l2.245,0l2.336,6.811c0,0 0.232,0.713 0.82,2.799l0.107,0c0.607,-2.086 0.838,-2.782 0.838,-2.782l2.335,-6.828l2.086,0l-4.225,12.213Z"
      style="fill:#fff;fill-rule:nonzero;"/>
  <path
      d="M56.59,87.467l-7.416,0l0,-12.23l7.273,0l0,1.801l-5.152,0l0,3.369l4.582,0l0,1.8l-4.582,0l0,3.459l5.455,0l-0.16,1.801Z"
      style="fill:#fff;fill-rule:nonzero;"/>
  <path
      d="M65.965,87.467l-1.693,-3.441c-0.357,-0.731 -0.803,-1.444 -1.57,-1.444l-1.016,0l0,4.885l-2.122,0l0,-12.213l3.923,0c2.692,0 4.029,1.498 4.029,3.619c0,1.461 -0.695,2.711 -2.3,3.317l0,0.035c0.392,0.232 0.607,0.553 0.749,0.838l2.336,4.404l-2.336,0Zm-2.531,-10.394l-1.748,0l0,3.726l1.783,0c1.283,0 1.872,-0.748 1.872,-1.907c0,-1.142 -0.464,-1.819 -1.907,-1.819Z"
      style="fill:#fff;fill-rule:nonzero;"/>
  <path
      d="M73.789,87.663c-1.676,0 -3.031,-0.66 -4.028,-1.355l0.89,-1.569c0.999,0.677 2.193,1.123 3.138,1.123c1.408,0 2.104,-0.785 2.104,-1.694c0,-2.282 -5.402,-1.55 -5.402,-5.651c0,-2.157 1.8,-3.458 3.958,-3.458c1.283,0 2.514,0.446 3.547,1.087l-0.766,1.533c-0.91,-0.463 -1.73,-0.819 -2.781,-0.819c-1.177,0 -1.783,0.659 -1.783,1.568c0,2.764 5.402,1.516 5.402,5.669c0,2.068 -1.944,3.566 -4.279,3.566Z"
      style="fill:#fff;fill-rule:nonzero;"/>
  <rect x="80.597" y="75.255" width="2.121" height="12.212" style="fill:#fff;fill-rule:nonzero;"/>
  <path d="M93.591,77.055l-3.084,0l0,10.411l-2.121,0l0,-10.393l-3.227,0l0,-1.819l8.593,0l-0.161,1.801Z"
        style="fill:#fff;fill-rule:nonzero;"/>
  <path
      d="M101.113,82.243l0,5.224l-2.123,0l0,-5.224l-3.85,-6.989l2.389,0l1.622,3.478c0,0 0.232,0.444 0.875,1.8l0.053,0c0.606,-1.356 0.82,-1.8 0.82,-1.8l1.729,-3.478l2.336,0l-3.851,6.989Z"
      style="fill:#fff;fill-rule:nonzero;"/>
  <path
      d="M117.511,87.663c-3.691,0 -5.313,-2.817 -5.313,-6.311c0,-3.673 1.64,-6.293 5.313,-6.293c3.672,0 5.312,2.62 5.312,6.293c0,3.494 -1.622,6.311 -5.312,6.311Zm0,-10.803c-2.103,0 -3.138,1.818 -3.138,4.474c0,2.674 1.035,4.528 3.138,4.528c2.087,0 3.119,-1.854 3.119,-4.51c0,-2.656 -1.016,-4.492 -3.119,-4.492Z"
      style="fill:#fff;fill-rule:nonzero;"/>
  <path d="M127.669,77.038l0,3.37l4.494,0l0,1.799l-4.494,0l0,5.259l-2.12,0l0,-12.229l7.13,0l0,1.801l-5.01,0Z"
        style="fill:#fff;fill-rule:nonzero;"/>
  <path
      d="M146.064,87.663c-3.76,0 -5.401,-2.549 -5.401,-6.293c0,-3.672 1.801,-6.311 5.473,-6.311c1.514,0 2.781,0.516 4.063,1.569l-1.103,1.425c-0.946,-0.784 -1.801,-1.193 -2.96,-1.193c-2.157,0 -3.298,1.622 -3.298,4.492c0,2.889 1.069,4.51 3.333,4.51c1.088,0 2.229,-0.498 3.227,-1.408l1.088,1.39c-1.248,1.141 -2.781,1.819 -4.422,1.819Z"
      style="fill:#fff;fill-rule:nonzero;"/>
  <path
      d="M160.502,87.467l-1.016,-2.942l-4.92,0l-1.016,2.942l-1.98,0l4.297,-12.034l2.478,-0.196l4.333,12.23l-2.176,0Zm-2.495,-7.15c0,0 -0.144,-0.391 -0.982,-2.922l-0.035,0c-0.82,2.531 -0.963,2.922 -0.963,2.922l-0.944,2.693l3.868,0l-0.944,-2.693Z"
      style="fill:#fff;fill-rule:nonzero;"/>
  <path d="M171.625,87.467l-7.221,0l0,-12.213l2.121,0l0,10.412l5.26,0l-0.16,1.801Z"
        style="fill:#fff;fill-rule:nonzero;"/>
  <rect x="173.852" y="75.255" width="2.121" height="12.212" style="fill:#fff;fill-rule:nonzero;"/>
  <path d="M180.855,77.038l0,3.37l4.493,0l0,1.799l-4.493,0l0,5.259l-2.122,0l0,-12.229l7.132,0l0,1.801l-5.01,0Z"
        style="fill:#fff;fill-rule:nonzero;"/>
  <path
      d="M192.549,87.663c-3.691,0 -5.314,-2.817 -5.314,-6.311c0,-3.673 1.64,-6.293 5.314,-6.293c3.672,0 5.311,2.62 5.311,6.293c0,3.494 -1.622,6.311 -5.311,6.311Zm0,-10.803c-2.105,0 -3.139,1.818 -3.139,4.474c0,2.674 1.034,4.528 3.139,4.528c2.086,0 3.119,-1.854 3.119,-4.51c0,-2.656 -1.016,-4.492 -3.119,-4.492Z"
      style="fill:#fff;fill-rule:nonzero;"/>
  <path
      d="M206.094,87.467l-1.693,-3.441c-0.356,-0.731 -0.802,-1.444 -1.569,-1.444l-1.017,0l0,4.885l-2.121,0l0,-12.213l3.923,0c2.692,0 4.028,1.498 4.028,3.619c0,1.461 -0.693,2.711 -2.299,3.317l0,0.035c0.393,0.232 0.608,0.553 0.748,0.838l2.336,4.404l-2.336,0Zm-2.531,-10.394l-1.748,0l0,3.726l1.784,0c1.284,0 1.872,-0.748 1.872,-1.907c0,-1.142 -0.463,-1.819 -1.908,-1.819Z"
      style="fill:#fff;fill-rule:nonzero;"/>
  <path
      d="M217.395,87.467l-5.15,-8.201l-0.037,0l0,8.201l-2.122,0l0,-12.016l2.051,-0.214l4.973,8.041l0.055,0l0,-8.024l2.121,0l0,12.213l-1.891,0Z"
      style="fill:#fff;fill-rule:nonzero;"/>
  <rect x="221.956" y="75.255" width="2.121" height="12.212" style="fill:#fff;fill-rule:nonzero;"/>
  <path
      d="M234.737,87.467l-1.016,-2.942l-4.92,0l-1.015,2.942l-1.981,0l4.297,-12.034l2.479,-0.196l4.332,12.23l-2.176,0Zm-2.494,-7.15c0,0 -0.145,-0.391 -0.983,-2.922l-0.035,0c-0.82,2.531 -0.963,2.922 -0.963,2.922l-0.945,2.693l3.869,0l-0.943,-2.693Z"
      style="fill:#fff;fill-rule:nonzero;"/></g></g></g></svg>
